REM DIRINDEX 1\4,1\2\5,1\2\6,1\3\7,1\3\8
REM DIRNAME folder01,folder02,folder03,folder04,folder05,folder06,folder07,folder08
TITLE ""
FILE "054_Day27_Check3_Sentences.mp3" MP3
  TRACK 01 AUDIO
    TITLE "0:"
    INDEX 01 00:00:00
  TRACK 02 AUDIO
    TITLE "4:cjc124_1752"
    INDEX 01 00:00:25
  TRACK 03 AUDIO
    TITLE "0:"
    INDEX 01 00:01:52
  TRACK 04 AUDIO
    TITLE "7:cjc124_1753"
    INDEX 01 00:02:24
  TRACK 05 AUDIO
    TITLE "0:"
    INDEX 01 00:04:46
  TRACK 06 AUDIO
    TITLE "8:cjc124_1754"
    INDEX 01 00:05:05
  TRACK 07 AUDIO
    TITLE "0:"
    INDEX 01 00:08:07
  TRACK 08 AUDIO
    TITLE "7:cjc124_1755"
    INDEX 01 00:08:44
  TRACK 09 AUDIO
    TITLE "0:"
    INDEX 01 00:10:70
  TRACK 10 AUDIO
    TITLE "8:cjc124_1756"
    INDEX 01 00:11:11
  TRACK 11 AUDIO
    TITLE "0:"
    INDEX 01 00:13:33
  TRACK 12 AUDIO
    TITLE "7:cjc124_1757"
    INDEX 01 00:13:71
  TRACK 13 AUDIO
    TITLE "0:"
    INDEX 01 00:16:73
  TRACK 14 AUDIO
    TITLE "8:cjc124_1758"
    INDEX 01 00:17:14
  TRACK 15 AUDIO
    TITLE "0:"
    INDEX 01 00:19:73
  TRACK 16 AUDIO
    TITLE "7:cjc124_1759"
    INDEX 01 00:20:34
  TRACK 17 AUDIO
    TITLE "0:"
    INDEX 01 00:23:16
  TRACK 18 AUDIO
    TITLE "8:cjc124_1760"
    INDEX 01 00:23:34
  TRACK 19 AUDIO
    TITLE "0:"
    INDEX 01 00:26:03
  TRACK 20 AUDIO
    TITLE "7:cjc124_1761"
    INDEX 01 00:26:40
  TRACK 21 AUDIO
    TITLE "0:"
    INDEX 01 00:28:55
  TRACK 22 AUDIO
    TITLE "8:cjc124_1762"
    INDEX 01 00:28:70
  TRACK 23 AUDIO
    TITLE "0:"
    INDEX 01 00:31:00
  TRACK 24 AUDIO
    TITLE "7:cjc124_1763"
    INDEX 01 00:31:41
  TRACK 25 AUDIO
    TITLE "0:"
    INDEX 01 00:33:42
  TRACK 26 AUDIO
    TITLE "8:cjc124_1764"
    INDEX 01 00:33:62
  TRACK 27 AUDIO
    TITLE "0:"
    INDEX 01 00:35:57
  TRACK 28 AUDIO
    TITLE "7:cjc124_1765"
    INDEX 01 00:36:19
  TRACK 29 AUDIO
    TITLE "0:"
    INDEX 01 00:39:19
  TRACK 30 AUDIO
    TITLE "8:cjc124_1766"
    INDEX 01 00:39:43
  TRACK 31 AUDIO
    TITLE "0:"
    INDEX 01 00:42:68
  TRACK 32 AUDIO
    TITLE "7:cjc124_1767"
    INDEX 01 00:43:33
  TRACK 33 AUDIO
    TITLE "0:"
    INDEX 01 00:46:11
  TRACK 34 AUDIO
    TITLE "8:cjc124_1768"
    INDEX 01 00:46:31
  TRACK 35 AUDIO
    TITLE "0:"
    INDEX 01 00:49:31
  TRACK 36 AUDIO
    TITLE "7:cjc124_1769"
    INDEX 01 00:49:70
  TRACK 37 AUDIO
    TITLE "0:"
    INDEX 01 00:53:27
  TRACK 38 AUDIO
    TITLE "8:cjc124_1770"
    INDEX 01 00:53:51
  TRACK 39 AUDIO
    TITLE "0:"
    INDEX 01 00:56:55
  TRACK 40 AUDIO
    TITLE "7:cjc124_1771"
    INDEX 01 00:57:17
  TRACK 41 AUDIO
    TITLE "0:"
    INDEX 01 01:00:37
  TRACK 42 AUDIO
    TITLE "8:cjc124_1772"
    INDEX 01 01:00:55
  TRACK 43 AUDIO
    TITLE "0:"
    INDEX 01 01:03:43
  TRACK 44 AUDIO
    TITLE "7:cjc124_1773"
    INDEX 01 01:04:07
  TRACK 45 AUDIO
    TITLE "0:"
    INDEX 01 01:06:69
  TRACK 46 AUDIO
    TITLE "8:cjc124_1774"
    INDEX 01 01:07:17
  TRACK 47 AUDIO
    TITLE "0:"
    INDEX 01 01:09:69
  TRACK 48 AUDIO
    TITLE "7:cjc124_1775"
    INDEX 01 01:10:31
  TRACK 49 AUDIO
    TITLE "0:"
    INDEX 01 01:13:10
  TRACK 50 AUDIO
    TITLE "8:cjc124_1776"
    INDEX 01 01:13:26
  TRACK 51 AUDIO
    TITLE "0:"
    INDEX 01 01:16:48
  TRACK 52 AUDIO
    TITLE "7:cjc124_1777"
    INDEX 01 01:17:12
  TRACK 53 AUDIO
    TITLE "0:"
    INDEX 01 01:20:08
  TRACK 54 AUDIO
    TITLE "8:cjc124_1778"
    INDEX 01 01:20:22
  TRACK 55 AUDIO
    TITLE "0:"
    INDEX 01 01:23:46
  TRACK 56 AUDIO
    TITLE "7:cjc124_1779"
    INDEX 01 01:24:08
  TRACK 57 AUDIO
    TITLE "0:"
    INDEX 01 01:26:40
  TRACK 58 AUDIO
    TITLE "8:cjc124_1780"
    INDEX 01 01:26:56
  TRACK 59 AUDIO
    TITLE "0:"
    INDEX 01 01:29:48
  TRACK 60 AUDIO
    TITLE "7:cjc124_1781"
    INDEX 01 01:30:11
  TRACK 61 AUDIO
    TITLE "0:"
    INDEX 01 01:32:27
  TRACK 62 AUDIO
    TITLE "8:cjc124_1782"
    INDEX 01 01:32:45
  TRACK 63 AUDIO
    TITLE "0:"
    INDEX 01 01:35:18
  TRACK 64 AUDIO
    TITLE "7:cjc124_1783"
    INDEX 01 01:35:57
  TRACK 65 AUDIO
    TITLE "0:"
    INDEX 01 01:40:46
  TRACK 66 AUDIO
    TITLE "8:cjc124_1784"
    INDEX 01 01:40:64
  TRACK 67 AUDIO
    TITLE "0:"
    INDEX 01 01:45:00
